<?xml version="1.0" encoding="UTF-8" standalone="no"?>
<!-- Created with Inkscape (http://www.inkscape.org/) -->

<svg
   xmlns:dc="http://purl.org/dc/elements/1.1/"
   xmlns:cc="http://creativecommons.org/ns#"
   xmlns:rdf="http://www.w3.org/1999/02/22-rdf-syntax-ns#"
   xmlns:svg="http://www.w3.org/2000/svg"
   xmlns="http://www.w3.org/2000/svg"
   xmlns:sodipodi="http://sodipodi.sourceforge.net/DTD/sodipodi-0.dtd"
   xmlns:inkscape="http://www.inkscape.org/namespaces/inkscape"
   width="744.09448819"
   height="1052.3622047"
   id="svg2"
   version="1.1"
   inkscape:version="0.48.0 r9654"
   sodipodi:docname="label_2.svg">
  <defs
     id="defs4" />
  <sodipodi:namedview
     id="base"
     pagecolor="#ffffff"
     bordercolor="#666666"
     borderopacity="1.0"
     inkscape:pageopacity="0.0"
     inkscape:pageshadow="2"
     inkscape:zoom="1.979899"
     inkscape:cx="344.32127"
     inkscape:cy="933.23504"
     inkscape:document-units="px"
     inkscape:current-layer="layer1"
     showgrid="false"
     inkscape:window-width="1600"
     inkscape:window-height="838"
     inkscape:window-x="-8"
     inkscape:window-y="-8"
     inkscape:window-maximized="1" />
  <metadata
     id="metadata7">
    <rdf:RDF>
      <cc:Work
         rdf:about="">
        <dc:format>image/svg+xml</dc:format>
        <dc:type
           rdf:resource="http://purl.org/dc/dcmitype/StillImage" />
        <dc:title></dc:title>
      </cc:Work>
    </rdf:RDF>
  </metadata>
  <g
     inkscape:label="Layer 1"
     inkscape:groupmode="layer"
     id="layer1">
    <g
       id="g3046"
       transform="translate(17.857143,-112.14286)">
      <path
         inkscape:connector-curvature="0"
         id="path3006"
         d="m 373.98703,214.43757 c 0.28322,-23.43831 0.41728,-24.95652 2.58893,-29.31958 4.19796,-8.43413 11.21092,-14.09923 22.38105,-18.07953 6.09254,-2.17098 7.83072,-2.26861 46.57871,-2.61623 l 40.25,-0.36109 0,23.07908 0,23.07909 -10.97097,0 -10.97098,0 -0.27902,-13.25 -0.27903,-13.25 -26.89995,-0.26662 c -25.52906,-0.25302 -27.11972,-0.16022 -31.21229,1.82096 -2.54742,1.23318 -5.24693,3.5933 -6.59587,5.76661 -2.07155,3.33752 -2.28392,4.88585 -2.28771,16.67905 l -0.004,13 44.75,0.26029 44.75,0.2603 0,9.00479 0,9.00479 -56.04869,-0.0468 -56.04869,-0.0468 0.29869,-24.71826 z m -40.20131,-13.18551 0,-37.03275 11.51232,0 11.51232,0 -0.26232,36.75 -0.26232,36.75 -11.25,0.28275 -11.25,0.28275 0,-37.03275 z m 169,-0.003 0,-37.07188 19.75001,0.27114 19.75,0.27114 0.28697,9.20896 0.287,9.20896 -8.287,0.29104 -8.28697,0.29109 0,18 0,18 25.43907,0.26757 c 29.62321,0.31158 32.97497,-0.28915 38.25211,-6.85585 l 3.14355,-3.91172 11.40002,0 c 13.04405,0 12.54422,-0.63646 7.62905,9.71444 -3.2671,6.88021 -9.74344,12.41407 -18.62963,15.91852 l -7.23417,2.85294 -41.75,0.30779 -41.75001,0.30778 0,-37.07187 z m -397.49999,34.48228 c -10.3769,-2.81535 -16.33726,-6.16171 -21.96884,-12.33407 -3.145303,-3.44733 -7.736596,-13.03635 -6.894386,-14.39907 0.264691,-0.42828 5.167856,-0.77869 10.895926,-0.77869 l 10.41466,0 4.40002,4.40002 c 6.21626,6.21626 9.75149,6.78772 39.65261,6.40971 l 24.5,-0.30973 0,-18.5 0,-18.5 -7.75,-0.29206 -7.75,-0.29207 0,-8.95793 0,-8.95794 19,0 19,0 0,37 0,37 -39.25,-0.0658 c -29.74838,-0.0499 -40.46039,-0.39421 -44.24999,-1.42236 z m 98.49999,-21.01183 0,-22.5 11.47097,0 11.47098,0 0.27902,13.25 0.27903,13.25 25.43907,0.26757 c 28.44945,0.29923 32.88857,-0.39716 37.50511,-5.8836 3.59812,-4.27612 4.66476,-9.46595 4.34094,-21.12127 l -0.28512,-10.2627 -45.25,-0.26019 -45.25,-0.26019 0,-8.98981 0,-8.98981 56.5,0 c 31.075,0 56.51914,0.1125 56.54253,0.25 0.0234,0.1375 0.30514,8.2068 0.62611,17.93177 0.85353,25.86123 -1.47454,35.80013 -10.42624,44.51133 -5.18864,5.04924 -12.6494,8.73473 -20.67606,10.21363 -3.62967,0.66876 -20.81154,1.09327 -44.25,1.09327 l -38.31634,0 0,-22.5 z"
         style="fill:#000000" />
      <rect
         y="148.23779"
         x="58.082348"
         height="125.85373"
         width="591.61359"
         id="rect3008"
         style="fill:none;stroke:#000000;stroke-width:1.23970664px;stroke-linecap:butt;stroke-linejoin:miter;stroke-opacity:1" />
      <text
         transform="scale(1.080472,0.92552145)"
         sodipodi:linespacing="125%"
         id="text3010"
         y="283.42499"
         x="319.78134"
         style="font-size:37.02085876px;font-style:normal;font-weight:normal;line-height:125%;letter-spacing:0px;word-spacing:0px;fill:#000000;fill-opacity:1;stroke:none;font-family:Sans"
         xml:space="preserve"><tspan
           dy="0"
           dx="0"
           style="font-size:27.76564407000000000px;font-style:normal;font-variant:normal;font-weight:bold;font-stretch:normal;text-align:center;letter-spacing:-1.45306873000000000px;word-spacing:0.41648465000000001px;writing-mode:lr-tb;text-anchor:middle;font-family:Courier New;-inkscape-font-specification:Courier New Bold;fill:#666666"
           y="283.42499"
           x="319.05481"
           id="tspan3012"
           sodipodi:role="line">truck electronics repair service</tspan></text>
    </g>
  </g>
</svg>
