<svg xmlns="http://www.w3.org/2000/svg" xmlns:xlink="http://www.w3.org/1999/xlink" xmlns:svgjs="http://svgjs.com/svgjs" width="512" height="512" x="0" y="0" viewBox="0 0 128 128" style="enable-background:new 0 0 512 512" xml:space="preserve" class=""><g><g xmlns="http://www.w3.org/2000/svg"><path d="M123.687,40.969a1.748,1.748,0,0,0-1.631-1.118h-2.4a1.659,1.659,0,0,0-.256.019L106.7,39.8h-.01a1.749,1.749,0,0,0-1.546,2.567A46.611,46.611,0,1,1,85.554,22.825L82.739,25.64a1.75,1.75,0,0,0,0,2.474l6.532,6.533a1.749,1.749,0,0,0,1.226.513l21.09.14h.012a1.752,1.752,0,0,0,1.75-1.762l-.141-21.09a1.749,1.749,0,0,0-.513-1.225L106.163,4.69a1.8,1.8,0,0,0-2.475,0l-5.331,5.332a64.132,64.132,0,1,0,25.33,30.947ZM64,124.5A60.5,60.5,0,1,1,97.614,13.719a1.75,1.75,0,0,0,2.212-.216l5.1-5.1,4.787,4.788.124,18.6-18.6-.123-4.787-4.788,3.215-3.215a1.749,1.749,0,0,0-.348-2.744,49.995,49.995,0,1,0,20.188,22.4l10.137.056c.088-.012.186-.007.277-.02h.925A60.446,60.446,0,0,1,64,124.5Z" fill="#f44336" data-original="#000000" style="" class=""/><path d="M83.867,77.244a1.749,1.749,0,0,0,1.75-1.75V52.5a1.75,1.75,0,0,0-3.5,0v9.747H70.356l5.069-8.88a1.749,1.749,0,1,0-3.039-1.734l-6.563,11.5a1.749,1.749,0,0,0,1.52,2.617H82.117v9.747A1.749,1.749,0,0,0,83.867,77.244Z" fill="#f44336" data-original="#000000" style="" class=""/><path d="M60.657,77.244a1.75,1.75,0,1,0,0-3.5H45.883V71.262a2.862,2.862,0,0,1,1.557-2.554l11.51-5.921A6.371,6.371,0,0,0,56.035,50.75h-11.9a1.749,1.749,0,0,0-1.75,1.75v5.508a1.75,1.75,0,0,0,3.5,0V54.25H56.035a2.872,2.872,0,0,1,1.314,5.425L45.839,65.6a6.344,6.344,0,0,0-3.456,5.665v4.232a1.749,1.749,0,0,0,1.75,1.75Z" fill="#f44336" data-original="#000000" style="" class=""/><path d="M64,34.127a1.749,1.749,0,0,0,1.75-1.75V24a1.75,1.75,0,1,0-3.5,0v8.375A1.749,1.749,0,0,0,64,34.127Z" fill="#f44336" data-original="#000000" style="" class=""/><path d="M64,105.742a1.749,1.749,0,0,0,1.75-1.75V95.617a1.75,1.75,0,0,0-3.5,0v8.375A1.749,1.749,0,0,0,64,105.742Z" fill="#f44336" data-original="#000000" style="" class=""/><path d="M40.4,42.875A1.75,1.75,0,1,0,42.878,40.4l-5.922-5.922a1.75,1.75,0,0,0-2.475,2.475Z" fill="#f44336" data-original="#000000" style="" class=""/><path d="M91.044,93.516a1.75,1.75,0,0,0,2.475-2.475L87.6,85.119a1.75,1.75,0,0,0-2.475,2.475Z" fill="#f44336" data-original="#000000" style="" class=""/><path d="M35.719,94.028a1.746,1.746,0,0,0,1.237-.512l5.922-5.922A1.75,1.75,0,1,0,40.4,85.119l-5.922,5.922a1.75,1.75,0,0,0,1.238,2.987Z" fill="#f44336" data-original="#000000" style="" class=""/><path d="M32.38,62.247H24.005a1.75,1.75,0,1,0,0,3.5H32.38a1.75,1.75,0,1,0,0-3.5Z" fill="#f44336" data-original="#000000" style="" class=""/><path d="M95.62,65.747H104a1.75,1.75,0,0,0,0-3.5H95.62a1.75,1.75,0,0,0,0,3.5Z" fill="#f44336" data-original="#000000" style="" class=""/></g></g></svg>